<!-- Generated by IcoMoon.io -->
<svg version="1.1" xmlns="http://www.w3.org/2000/svg" width="1021" height="1024" viewBox="0 0 1021 1024">
<title></title>
<g id="icomoon-ignore">
</g>
<path fill="#000" d="M223.858 303.787l-24.747 24.747v54.044l49.778 49.778h106.667v93.867h32.711l49.778-49.778v-31.289l-0.284-31.289-23.609-25.031-23.893-24.747h-111.502v-85.333h-29.867l-25.031 25.031z"></path>
<path fill="#000" d="M290.133 301.511v22.756h65.422v22.756h76.8v-12.231c0-11.378-1.422-13.369-22.187-34.133l-21.902-21.902h-98.133v22.756z"></path>
<path fill="#000" d="M577.422 402.489v123.733h82.489v-247.467h-82.489v123.733z"></path>
<path fill="#000" d="M671.289 302.933v23.893l61.156 1.707 0.853 37.547 0.853 37.831h-62.862v48.356h14.222c9.956 0 14.222-1.138 14.222-3.698 0-2.844 10.809-5.12 36.978-8.818 20.48-2.56 38.116-4.267 39.253-3.413 1.138 0.569 10.809-6.827 21.333-16.782l19.058-17.636v-72.818l-24.747-25.031-24.747-25.316h-95.573v24.178z"></path>
<path fill="#000" d="M769.422 446.578c-4.551 5.12-8.818 5.689-36.124 5.689-16.782 0-30.72 0.853-30.72 1.991s7.396 17.636 16.498 36.978l16.213 34.987h43.52c23.609 0 43.236-0.853 43.236-1.707 0-2.844-44.089-83.627-45.796-83.627-0.853 0-3.982 2.56-6.827 5.689z"></path>
<path fill="#000" d="M199.111 463.929c0 10.24 2.276 14.222 21.618 36.978l21.333 25.316h102.116v-45.511h-62.578v-28.444h-82.489v11.662z"></path>
</svg>
